<?xml version="1.0" encoding="utf-8"?>
<!-- Generator: Adobe Illustrator 28.1.0, SVG Export Plug-In . SVG Version: 6.00 Build 0)  -->
<svg version="1.1" id="Layer_1" focusable="false" xmlns="http://www.w3.org/2000/svg" xmlns:xlink="http://www.w3.org/1999/xlink"
	 x="0px" y="0px" viewBox="0 0 48 49" style="enable-background:new 0 0 48 49;" xml:space="preserve">
<style type="text/css">
	.st0{fill:#231F20;}
</style>
<g id="Frame_316128411">
	<g id="Group_316127878">
		<g id="Group_316127868">
			<g id="Rectangle_4497">
				<rect x="23" y="24.9" transform="matrix(0.7046 -0.7096 0.7096 0.7046 -11.298 24.6858)" class="st0" width="2" height="2"/>
			</g>
			<g id="Rectangle_4529">
				<path class="st0" d="M39,31.5h2v-2h-2v-9c1.7,0,3-1.3,3-3s-1.3-3-3-3c0,0-0.1,0-0.1,0c-0.2-2.3-0.9-4.5-1.9-6.3
					c-0.4-0.7-0.8-1.3-1.2-1.8l-0.8-1l-0.8,1c-0.4,0.6-0.8,1.2-1.2,1.8c-1,1.9-1.7,4-1.9,6.3c0,0-0.1,0-0.1,0c-1.7,0-3,1.3-3,3
					s1.3,3,3,3v4.3c-2.5-3.3-6.4-5.1-6.6-5.2L24,19.4l-0.4,0.1c-0.2,0.1-4.2,1.6-6.7,5v-4c1.7,0,3-1.3,3-3s-1.3-3-3-3
					c0,0-0.1,0-0.1,0c-0.2-2.3-0.9-4.5-1.9-6.3c-0.4-0.7-0.8-1.3-1.2-1.8l-0.8-1l-0.8,1c-0.4,0.6-0.8,1.2-1.2,1.8
					c-1,1.9-1.7,4-1.9,6.3c0,0-0.1,0-0.1,0c-1.7,0-3,1.3-3,3s1.3,3,3,3v9H7v2h2v9H6v2h36v-2h-3V31.5z M12.8,9.2
					C12.8,9,12.9,8.9,13,8.7c0.1,0.1,0.2,0.3,0.2,0.4c0.9,1.6,1.4,3.4,1.6,5.3h-3.8C11.3,12.5,11.9,10.7,12.8,9.2z M9,18.5
					c-0.5,0-1-0.5-1-1c0-0.5,0.4-1,1-1h0c0.5,0,1,0.5,1,1S9.5,18.5,9,18.5z M15,40.5h-4v-9h4V40.5z M15,29.5h-4v-9.8
					c0.6-0.5,1-1.3,1-2.2h2c0,0.9,0.4,1.7,1,2.2V29.5z M24,21.6c1.4,0.7,6.3,3.5,7,7.9H17.1C17.7,24.8,22.6,22.2,24,21.6z M16,17.5
					c0-0.5,0.5-1,1-1h0c0.5,0,1,0.5,1,1c0,0.5-0.5,1-1,1S16,18,16,17.5z M26,40.5h-4v-3c0-1,1.2-1.9,2-2.4c0.9,0.5,2,1.5,2,2.4V40.5
					z M31,40.5h-3v-3c0-2.5-3.2-4.2-3.5-4.4L24,32.9l-0.4,0.2c-0.4,0.2-3.6,1.8-3.6,4.4v3h-3v-9h14V40.5z M34.8,9.2
					C34.8,9,34.9,8.9,35,8.7c0.1,0.1,0.2,0.3,0.2,0.4c0.9,1.6,1.4,3.4,1.6,5.3h-3.8C33.3,12.5,33.9,10.7,34.8,9.2z M31,18.5
					c-0.5,0-1-0.5-1-1c0-0.5,0.4-1,1-1h0c0.5,0,1,0.5,1,1S31.5,18.5,31,18.5z M37,40.5h-4v-9h4V40.5z M37,29.5h-4v-9.8
					c0.6-0.5,1-1.3,1-2.2h2c0,0.9,0.4,1.7,1,2.2V29.5z M38,17.5c0-0.5,0.5-1,1-1h0c0.5,0,1,0.5,1,1c0,0.5-0.5,1-1,1S38,18,38,17.5z"
					/>
			</g>
		</g>
	</g>
</g>
</svg>
