<?xml version="1.0" encoding="utf-8"?>
<!-- Generator: Adobe Illustrator 28.1.0, SVG Export Plug-In . SVG Version: 6.00 Build 0)  -->
<svg version="1.1" id="Layer_1" focusable="false" xmlns="http://www.w3.org/2000/svg" xmlns:xlink="http://www.w3.org/1999/xlink"
	 x="0px" y="0px" viewBox="0 0 48 48" style="enable-background:new 0 0 48 48;" xml:space="preserve">
<style type="text/css">
	.st0{fill:#231F20;}
</style>
<g id="Rectangle_4440">
	<path class="st0" d="M34,16v-2H14v2h1v14h-1v2h3v13h14V32h3v-2h-1V16H34z M29,43H19V32h10V43z M31,30H17V16h14V30z"/>
	<path class="st0" d="M24,18c-2.8,0-5,2.2-5,5s2.2,5,5,5s5-2.2,5-5S26.8,18,24,18z M26,23.5h-2.5v-3h1v2H26V23.5z"/>
</g>
<g id="Rectangle_4441">
	<rect x="17" y="11" class="st0" width="14" height="2"/>
</g>
<g id="Rectangle_4442">
	<rect x="19" y="8" class="st0" width="10" height="2"/>
</g>
<g id="Rectangle_4443">
	<polygon class="st0" points="26,7 22,7 23.3,3 24.7,3 	"/>
</g>
<g id="Rectangle_4445">
	<rect x="21" y="34" class="st0" width="2" height="7"/>
</g>
<g id="Rectangle_4446">
	<rect x="25" y="34" class="st0" width="2" height="7"/>
</g>
</svg>
