<?xml version="1.0" encoding="utf-8"?>
<!-- Generator: Adobe Illustrator 28.1.0, SVG Export Plug-In . SVG Version: 6.00 Build 0)  -->
<svg version="1.1" id="Layer_1" focusable="false" xmlns="http://www.w3.org/2000/svg" xmlns:xlink="http://www.w3.org/1999/xlink"
	 x="0px" y="0px" viewBox="0 0 48 49" style="enable-background:new 0 0 48 49;" xml:space="preserve">
<style type="text/css">
	.st0{fill:#FFFFFF;stroke:#121117;stroke-width:2;}
	.st1{fill:#FFFFFF;filter:url(#Adobe_OpacityMaskFilter);}
	.st2{mask:url(#path-2-inside-1_1503_905_00000135683473317303464310000004323765824787463560_);}
	.st3{fill:#121117;}
	.st4{fill:#121117;stroke:#121117;}
	.st5{fill:none;stroke:#121117;stroke-width:2;}
</style>
<path id="Rectangle_4468" class="st0" d="M22,7.5h4v3h-4V7.5z"/>
<defs>
	<filter id="Adobe_OpacityMaskFilter" filterUnits="userSpaceOnUse" x="12.4" y="7.5" width="23.2" height="39">
		<feColorMatrix  type="matrix" values="1 0 0 0 0  0 1 0 0 0  0 0 1 0 0  0 0 0 1 0"/>
	</filter>
</defs>
<mask maskUnits="userSpaceOnUse" x="12.4" y="7.5" width="23.2" height="39" id="path-2-inside-1_1503_905_00000135683473317303464310000004323765824787463560_">
	<path class="st1" d="M22,9.5h4c0.5,9,7,35,7,35H15C15,44.5,22,18.5,22,9.5"/>
</mask>
<g class="st2">
	<rect x="20" y="7.5" class="st3" width="2" height="2"/>
	<polygon class="st3" points="28,9.4 26,9.5 26,7.5 27.9,7.5 	"/>
	<polygon class="st3" points="33,44.5 33,46.5 35.6,46.5 34.9,44 	"/>
	<polygon class="st3" points="15,44.5 13.1,44 12.4,46.5 15,46.5 	"/>
	<polygon class="st3" points="26,9.5 26,11.5 22,11.5 22,9.5 24,9.5 24,9.6 	"/>
	<path class="st3" d="M34.9,44L34.9,44L33,44.5L31.1,45v0l0-0.1c-0.2-0.8-0.4-1.6-0.6-2.4c-0.9-3.9-1.9-7.8-2.7-11.7
		c-1.5-6.7-3-14.3-3.6-19.3c-0.1-0.7-0.1-1.3-0.2-1.9l4-0.2c0.2,4.3,1.9,12.9,3.6,20.5c1,4.3,2,8.6,3,13l0.2,0.8L34.9,44L34.9,44z"
		/>
	<rect x="15" y="42.5" class="st3" width="18" height="4"/>
	<path class="st3" d="M24,9.5v0.1c0,0.6,0,1.2-0.1,1.9c-0.4,5-2,12.7-3.5,19.3c-0.9,3.9-1.9,7.8-2.9,11.7c-0.1,0.5-0.2,0.9-0.4,1.4
		c-0.1,0.4-0.2,0.7-0.3,1.1l0,0.1c0,0,0,0,0,0v0l-3.9-1v0l0-0.1c1.2-4.6,2.4-9.3,3.5-14C18.3,22.2,20,13.7,20,9.5H24z"/>
</g>
<path id="Rectangle_4473" class="st3" d="M12,42.5h24v2H12V42.5z"/>
<path id="Rectangle_4471" class="st4" d="M15.5,35h17v1h-17V35z"/>
<path id="Rectangle_4475" class="st4" d="M16.5,29h15v1h-15V29z"/>
<path id="Rectangle_4474" class="st3" d="M23.3,3.5h1.3l0.3,2h-2L23.3,3.5z"/>
<path id="Ellipse_16" class="st5" d="M28,43.5l-3.3-14h-1.3l-3.3,14c0,0,1-3.5,4-3.5S28,43.5,28,43.5z"/>
</svg>
