<?xml version="1.0" encoding="UTF-8"?>
<svg id="Layer_2" data-name="Layer 2" xmlns="http://www.w3.org/2000/svg" viewBox="0 0 24.95 25.14">
  <defs>
    <style>
      .cls-1 {
        fill: #ed2c85;
        stroke-width: 0px;
      }
    </style>
  </defs>
  <g id="Layer_1-2" data-name="Layer 1">
    <path class="cls-1" d="M12.15,13.52l-2.92-1.46-3.14,1.45.36-3.38-2.48-2.65,3.61-.66,1.49-3.16,1.77,3.17,3.35.96-2.35,2.38.3,3.36ZM4.76,7.73l2.11,2.26-.31,2.87,2.68-1.23,2.45,1.22-.26-2.84,2.01-2.03-2.86-.82-1.47-2.64-1.25,2.65-3.1.57Z"/>
    <path class="cls-1" d="M9.19,16.5c-3.97,0-7.19-3.23-7.19-7.19s3.23-7.19,7.19-7.19,7.19,3.23,7.19,7.19-3.23,7.19-7.19,7.19ZM9.19,2.51c-3.75,0-6.8,3.05-6.8,6.8s3.05,6.8,6.8,6.8,6.8-3.05,6.8-6.8-3.05-6.8-6.8-6.8Z"/>
    <path class="cls-1" d="M9.09,18.03h-.08c-4.35-.04-9.01-3.67-9.01-9.02C0,4.04,4.04,0,9.02,0c5.25,0,8.9,4.66,9.02,9.01h0c.06,2.26-.88,4.11-1.68,5.25-.5.64-3.18,3.77-7.26,3.77ZM9.02.4C4.26.4.4,4.26.4,9.02c0,5.11,4.46,8.58,8.62,8.62h.07c3.9,0,6.46-3,6.94-3.61.76-1.09,1.66-2.85,1.61-5.01h0c-.11-4.17-3.6-8.63-8.62-8.63Z"/>
    <path class="cls-1" d="M6.81,25.14c-.08,0-.15-.02-.21-.04-.44-.16-.62-.75-.64-.82v-.06s0-2.57,0-2.57c0-.42-.55-.42-.61-.42h-1.74c-.93-.11-1.26-.9-1.3-1.31v-4.98s.39,0,.39,0v4.95s.11.84.93.93h1.72s.01,0,.02,0c.34,0,.97.17.98.81v2.55c.05.14.19.46.39.53.03.01.13.05.31-.07l4.46-3.76h.07s6.06-.1,6.06-.1v.4s-5.99.1-5.99.1l-4.37,3.69c-.18.12-.34.16-.47.16Z"/>
    <path class="cls-1" d="M22.56,24.98c-.64,0-1.29-.24-1.79-.73l-3.99-4.3-.4.26-1.36-1.59.22-.45-1.56-1.74.3-.26,1.74,1.94-.23.46.96,1.12.39-.25,4.21,4.53c.81.8,2.12.82,2.91.05.71-.69.79-1.84.2-2.68l-.22-.18-4.74-4.11.29-.49-1.05-1.02-.47.3-1.93-1.54.25-.31,1.7,1.36.49-.32,1.5,1.46-.28.47,4.74,4.1c.73,1.03.63,2.41-.22,3.23-.46.45-1.07.68-1.68.68Z"/>
    <rect class="cls-1" x="16.36" y="18.13" width="3.67" height=".4" transform="translate(-7.63 18.66) rotate(-45.95)"/>
    <path class="cls-1" d="M22.5,19.53h-.4s.19-15.45.19-15.45c0-.05-.03-1.4-1.12-1.4h-6.39v-.4h6.39c1.18,0,1.51,1.17,1.52,1.79l-.19,15.45Z"/>
    <rect class="cls-1" x="17.47" y="19.27" width="3.66" height=".4" transform="translate(-8.11 19.8) rotate(-45.95)"/>
    <rect class="cls-1" x="14.9" y="16.72" width="3.66" height=".4" transform="translate(-7.06 17.18) rotate(-45.95)"/>
  </g>
</svg>