<?xml version="1.0" encoding="UTF-8"?>
<svg id="Layer_2" data-name="Layer 2" xmlns="http://www.w3.org/2000/svg" viewBox="0 0 25.92 21.65">
  <defs>
    <style>
      .cls-1 {
        fill: #ed2c85;
        stroke-width: 0px;
      }
    </style>
  </defs>
  <g id="Layer_1-2" data-name="Layer 1">
    <path class="cls-1" d="M25.39,21.65H4.21c-.29,0-.53-.24-.53-.53v-4.63c0-.29.24-.53.53-.53h21.18c.3,0,.54.24.54.53v4.63c0,.29-.24.53-.54.53ZM4.21,16.34c-.09,0-.16.07-.16.16v4.63c0,.09.07.16.16.16h21.18c.09,0,.16-.07.16-.16v-4.63c0-.09-.07-.16-.16-.16H4.21Z"/>
    <path class="cls-1" d="M19.13,20.32h-8.65c-.1,0-.19-.09-.19-.19v-2.66c0-.1.09-.19.19-.19h8.65c.1,0,.19.09.19.19v2.66c0,.1-.09.19-.19.19ZM10.66,19.95h8.27v-2.28h-8.27v2.28Z"/>
    <path class="cls-1" d="M22.97,21.65h-.92c-.1,0-.19-.09-.19-.19v-5.32c0-.1.09-.19.19-.19h.92c.1,0,.19.09.19.19v5.32c0,.1-.09.19-.19.19ZM22.25,21.27h.54v-4.94h-.54v4.94Z"/>
    <path class="cls-1" d="M7.94,21.65h-.92c-.1,0-.19-.09-.19-.19v-5.32c0-.1.09-.19.19-.19h.92c.1,0,.19.09.19.19v5.32c0,.1-.09.19-.19.19ZM7.21,21.27h.54v-4.94h-.54v4.94Z"/>
    <path class="cls-1" d="M3.39,5.32v.38h16.01c.52,0,1-.14,1.42-.38H3.39Z"/>
    <path class="cls-1" d="M18.26,9.69h-8.65c-.1,0-.19-.09-.19-.19v-2.66c0-.1.09-.19.19-.19h8.65c.1,0,.19.09.19.19v2.66c0,.1-.09.19-.19.19ZM9.8,9.31h8.27v-2.28h-8.27v2.28Z"/>
    <path class="cls-1" d="M22.11,11.02h-.92c-.1,0-.19-.09-.19-.19v-5.32c0-.1.09-.19.19-.19h.92c.1,0,.19.09.19.19v5.32c0,.1-.09.19-.19.19ZM21.38,10.64h.54v-4.94h-.54v4.94Z"/>
    <path class="cls-1" d="M7.07,11.02h-.92c-.1,0-.19-.09-.19-.19v-5.32c0-.1.09-.19.19-.19h.92c.1,0,.19.09.19.19v5.32c0,.1-.09.19-.19.19ZM6.34,10.64h.54v-4.94h-.54v4.94Z"/>
    <path class="cls-1" d="M25.06,5.86v4.62c0,.3-.24.54-.54.54H3.35c-.3,0-.54-.24-.54-.54v-4.62c0-.17.08-.32.2-.41v-1.02h.38c.83,0,1.52-.68,1.52-1.52s-.68-1.52-1.52-1.52h-.38V0h16.39c1.57,0,2.85,1.28,2.85,2.85,0,1.06-.58,1.98-1.43,2.47h-1.42c1.36,0,2.47-1.11,2.47-2.47s-1.11-2.47-2.47-2.47H3.39v.64c.42,0,.83.14,1.14.38.46.35.76.89.76,1.52s-.3,1.17-.76,1.52c-.31.23-.71.38-1.14.38v.89h-.04c-.09,0-.16.07-.16.16v4.62c0,.09.07.16.16.16h21.17c.09,0,.16-.07.16-.16v-4.62c0-.09-.07-.16-.16-.16h-5.12c.52,0,1-.14,1.42-.38h3.71c.3,0,.54.24.54.54Z"/>
    <path class="cls-1" d="M20.81,5.32c-.42.24-.9.38-1.42.38H3.39v-.38h17.43Z"/>
    <path class="cls-1" d="M21.09,2.91c0,1.05-.85,1.89-1.89,1.89H3.39c.42,0,.83-.14,1.14-.38h14.67c.83,0,1.52-.68,1.52-1.52s-.68-1.52-1.52-1.52H4.52c-.31-.23-.71-.38-1.14-.38h15.81c1.05,0,1.89.85,1.89,1.89Z"/>
    <path class="cls-1" d="M21.02,16.34H.19c-.1,0-.19-.09-.19-.19v-5.32c0-.1.09-.19.19-.19h20.82c.68,0,1.23.55,1.23,1.23v3.23c0,.68-.55,1.23-1.23,1.23ZM.38,15.96h20.64c.47,0,.85-.38.85-.85v-3.23c0-.47-.38-.85-.85-.85H.38v4.94Z"/>
    <path class="cls-1" d="M14.32,14.79h-6.4c-.73,0-1.32-.59-1.32-1.32s.59-1.32,1.32-1.32h6.4c.73,0,1.32.59,1.32,1.32s-.59,1.32-1.32,1.32ZM7.92,12.54c-.52,0-.94.42-.94.94s.42.94.94.94h6.4c.52,0,.94-.42.94-.94s-.42-.94-.94-.94h-6.4Z"/>
    <path class="cls-1" d="M19.3,16.34h-.92c-.1,0-.19-.09-.19-.19v-5.32c0-.1.09-.19.19-.19h.92c.1,0,.19.09.19.19v5.32c0,.1-.09.19-.19.19ZM18.57,15.96h.54v-4.94h-.54v4.94Z"/>
    <path class="cls-1" d="M4.26,16.34h-.92c-.1,0-.19-.09-.19-.19v-5.32c0-.1.09-.19.19-.19h.92c.1,0,.19.09.19.19v5.32c0,.1-.09.19-.19.19ZM3.53,15.96h.54v-4.94h-.54v4.94Z"/>
    <path class="cls-1" d="M18.57,3.04H6.8c-.1,0-.19-.09-.19-.19s.09-.19.19-.19h11.78c.1,0,.19.09.19.19s-.09.19-.19.19Z"/>
  </g>
</svg>