<?xml version="1.0" encoding="UTF-8"?>
<svg id="Layer_2" data-name="Layer 2" xmlns="http://www.w3.org/2000/svg" xmlns:xlink="http://www.w3.org/1999/xlink" viewBox="0 0 29.88 28.79">
  <defs>
    <style>
      .cls-1, .cls-2 {
        fill: #ed2c85;
      }

      .cls-3 {
        clip-path: url(#clippath);
      }

      .cls-2 {
        stroke-width: 0px;
      }
    </style>
    <clipPath id="clippath">
      <path class="cls-2" d="M.25,28.79s-.02,0-.03,0c-.14-.02-.24-.14-.22-.28.02-.21.59-5.1.92-6.25.32-1.15,1.41-4,1.45-4.12.03-.06.46-.88,1.61-1.52,1.11-.62,4.18-1.56,4.31-1.6.11-.03.22.01.29.11,0,.01.96,1.46,2.17,1.44,1.26-.02,2.54-1.45,2.55-1.47.07-.08.18-.11.28-.07l4.31,1.66c.06.03.85.43,1.21.7.32.25,1.86,2.55,2.49,3.49l1.85-2.48c-.01-.25-.04-.96,0-1.63.06-.91.74-1.65,1.51-1.65.68,0,1.2.03,1.49.19.32.18.45.66.47.75.01.15.11,2.57-.17,3.38-.33.95-.94,2.63-1.35,3.2-.1.14-.3.45-.55.83-1.02,1.55-1.96,2.96-2.35,3.23-.12.08-.22.16-.32.25-.35.29-.75.62-1.53.62-.93,0-2.96-.69-3.29-1.64-.27-.78-.92-3.84-.95-3.97-.03-.13.06-.27.19-.3.14-.03.27.06.3.19,0,.03.67,3.15.93,3.91.2.59,1.9,1.31,2.82,1.31.6,0,.89-.24,1.21-.51.11-.09.23-.19.36-.28.34-.23,1.61-2.16,2.22-3.09.25-.39.46-.7.56-.84.27-.38.74-1.5,1.28-3.07.21-.6.18-2.48.15-3.15-.03-.1-.13-.33-.22-.38-.23-.13-.97-.13-1.24-.13-.45,0-.96.48-1.01,1.19-.05.78,0,1.65,0,1.66,0,.06-.01.12-.05.16l-2.12,2.84c-.05.06-.12.1-.21.1-.08,0-.16-.04-.2-.11-.93-1.41-2.34-3.48-2.57-3.66-.32-.25-1.1-.64-1.11-.64l-4.13-1.59c-.37.39-1.54,1.49-2.79,1.51-.01,0-.03,0-.04,0-1.23,0-2.15-1.09-2.45-1.51-.67.21-3.12.99-4.04,1.5-1.01.57-1.4,1.28-1.4,1.29,0,0-1.11,2.92-1.43,4.05-.31,1.12-.9,6.13-.9,6.18-.01.13-.12.22-.25.22Z"/>
    </clipPath>
  </defs>
  <g id="Layer_1-2" data-name="Layer 1">
    <g>
      <path class="cls-1" d="M.25,28.79s-.02,0-.03,0c-.14-.02-.24-.14-.22-.28.02-.21.59-5.1.92-6.25.32-1.15,1.41-4,1.45-4.12.03-.06.46-.88,1.61-1.52,1.11-.62,4.18-1.56,4.31-1.6.11-.03.22.01.29.11,0,.01.96,1.46,2.17,1.44,1.26-.02,2.54-1.45,2.55-1.47.07-.08.18-.11.28-.07l4.31,1.66c.06.03.85.43,1.21.7.32.25,1.86,2.55,2.49,3.49l1.85-2.48c-.01-.25-.04-.96,0-1.63.06-.91.74-1.65,1.51-1.65.68,0,1.2.03,1.49.19.32.18.45.66.47.75.01.15.11,2.57-.17,3.38-.33.95-.94,2.63-1.35,3.2-.1.14-.3.45-.55.83-1.02,1.55-1.96,2.96-2.35,3.23-.12.08-.22.16-.32.25-.35.29-.75.62-1.53.62-.93,0-2.96-.69-3.29-1.64-.27-.78-.92-3.84-.95-3.97-.03-.13.06-.27.19-.3.14-.03.27.06.3.19,0,.03.67,3.15.93,3.91.2.59,1.9,1.31,2.82,1.31.6,0,.89-.24,1.21-.51.11-.09.23-.19.36-.28.34-.23,1.61-2.16,2.22-3.09.25-.39.46-.7.56-.84.27-.38.74-1.5,1.28-3.07.21-.6.18-2.48.15-3.15-.03-.1-.13-.33-.22-.38-.23-.13-.97-.13-1.24-.13-.45,0-.96.48-1.01,1.19-.05.78,0,1.65,0,1.66,0,.06-.01.12-.05.16l-2.12,2.84c-.05.06-.12.1-.21.1-.08,0-.16-.04-.2-.11-.93-1.41-2.34-3.48-2.57-3.66-.32-.25-1.1-.64-1.11-.64l-4.13-1.59c-.37.39-1.54,1.49-2.79,1.51-.01,0-.03,0-.04,0-1.23,0-2.15-1.09-2.45-1.51-.67.21-3.12.99-4.04,1.5-1.01.57-1.4,1.28-1.4,1.29,0,0-1.11,2.92-1.43,4.05-.31,1.12-.9,6.13-.9,6.18-.01.13-.12.22-.25.22Z"/>
      <g class="cls-3">
        <path class="cls-2" d="M25.65,19.99c-.33,0-.73-.04-1.08-.16-.87-.31-1.11-1.26-1.12-1.3-.03-.13.05-.27.18-.3.13-.03.27.05.3.18,0,0,.2.73.81.95.68.24,1.6.08,1.6.08.14-.02.27.07.29.2.02.14-.07.27-.2.29-.02,0-.35.06-.78.06Z"/>
      </g>
    </g>
    <path class="cls-2" d="M11.02,28.62c-.14,0-.25-.11-.25-.25l-.06-11.59c0-.14.11-.25.25-.25h0c.14,0,.25.11.25.25l.06,11.59c0,.14-.11.25-.25.25h0Z"/>
    <path class="cls-2" d="M4.03,28.62s-.03,0-.05,0c-.14-.03-.22-.16-.2-.29l1.23-6.48c.03-.14.16-.23.29-.2.14.03.22.16.2.29l-1.23,6.48c-.02.12-.13.2-.25.2Z"/>
    <path class="cls-2" d="M18.01,28.79c-.12,0-.23-.09-.25-.21l-.43-2.71c-.02-.14.07-.26.21-.29.15-.02.26.07.29.21l.43,2.71c.02.14-.07.26-.21.29-.01,0-.03,0-.04,0Z"/>
    <path class="cls-2" d="M8.47,18.66s-.03,0-.05,0c-.07-.01-.13-.06-.17-.12l-1.57-2.69c-.07-.12-.03-.27.09-.34.12-.07.27-.03.34.09l1.43,2.44,1.72-1.33c.11-.08.26-.06.35.05.08.11.06.27-.05.35l-1.95,1.5s-.1.05-.15.05Z"/>
    <path class="cls-2" d="M13.47,18.66c-.06,0-.11-.02-.16-.05l-2.13-1.7c-.11-.09-.12-.24-.04-.35s.24-.13.35-.04l1.9,1.51,1.24-2.37c.07-.12.22-.17.34-.11.12.06.17.22.11.34l-1.38,2.64c-.04.07-.1.11-.17.13-.02,0-.03,0-.05,0Z"/>
    <path class="cls-2" d="M8.53,15.5s-.04,0-.06,0c-.13-.03-.21-.17-.18-.3l.27-1.07c-.55-.33-2.18-1.44-2.21-3.01,0-.03,0-.13,0-.28-.76-.1-1.89-.54-1.95-1.72-.07-1.33,1.12-1.93,1.17-1.95.03-.02.07-.03.11-.03h.93c.07,0,.13.03.18.07s.07.11.07.18c0,0,0,3.5,0,3.71.03,1.54,2.1,2.67,2.12,2.68.1.05.15.17.12.28l-.32,1.25c-.03.11-.13.19-.24.19ZM5.73,7.64c-.19.11-.89.58-.84,1.45.05.9.99,1.16,1.45,1.24,0-.85,0-2.15,0-2.69h-.62Z"/>
    <path class="cls-2" d="M11.48,14.75c-1.31,0-2.64-.49-2.72-.52-.13-.05-.2-.19-.15-.32.05-.13.19-.2.32-.15.02,0,2.15.78,3.52.35,1.38-.44,2.63-2.2,2.68-2.75.06-.55.02-3.05,0-3.84-.75-.02-3.01-.1-4.01-.28-.96-.18-2-.6-2.4-.77-.31.32-1.15,1.08-2.1,1.16-.16,0-.26-.09-.27-.23-.01-.14.09-.26.23-.27.98-.09,1.89-1.12,1.9-1.13.07-.08.19-.11.29-.06.01,0,1.32.6,2.45.8,1.15.21,4.15.28,4.18.28.13,0,.24.11.24.24,0,.14.07,3.45,0,4.14-.08.76-1.45,2.67-3.03,3.18-.35.11-.74.15-1.12.15Z"/>
    <path class="cls-2" d="M16.67,7.82s-.04,0-.05,0l-1.29-.29c-.13-.03-.22-.16-.19-.3.03-.13.16-.22.3-.19l.98.22v-3.8c0-1.77-2.18-2.81-2.52-2.96h-4.88c-1.72.29-1.79,1.79-1.84,2.88,0,.21-.02.4-.04.55-.09.7.32,1.27.43,1.41l1.2.62c.12.06.17.21.11.34-.06.12-.21.17-.34.11l-1.24-.64s-.05-.03-.07-.06c-.03-.03-.71-.81-.58-1.84.02-.14.03-.31.04-.51.05-1.12.14-2.99,2.29-3.35h4.97s.06,0,.09.02c.12.05,2.87,1.2,2.87,3.45v4.11c0,.08-.03.15-.09.19-.04.04-.1.06-.16.06Z"/>
    <path class="cls-2" d="M5.24,7.96c-.14,0-.25-.11-.25-.25v-3.21c.03-.67.47-1.93,1.9-1.96h0c.14,0,.25.11.25.24,0,.14-.11.25-.24.26-1.31.03-1.41,1.42-1.41,1.48v3.2c0,.14-.11.25-.25.25Z"/>
    <path class="cls-2" d="M15.56,11c-.13,0-.24-.1-.25-.24,0-.14.1-.25.24-.26.78-.03,1.26-.78,1.37-1.47.12-.72-.42-1.28-.43-1.28-.1-.1-.1-.26,0-.35.1-.1.25-.1.35,0,.03.03.73.75.57,1.72-.15.88-.78,1.84-1.84,1.89h-.01Z"/>
    <path class="cls-2" d="M10.99,12.91c-.79,0-1.49-.59-1.52-.62-.11-.09-.12-.25-.03-.35.09-.11.25-.12.35-.03,0,0,.67.57,1.32.49.28-.03.51-.18.71-.45.08-.11.24-.13.35-.05.11.08.13.24.05.35-.28.38-.64.6-1.06.65-.06,0-.12,0-.17,0Z"/>
    <path class="cls-2" d="M25.1,15.5c-.14,0-.25-.11-.25-.25v-5.43c0-.14.11-.25.25-.25s.25.11.25.25v5.43c0,.14-.11.25-.25.25Z"/>
    <path class="cls-2" d="M13.33,15.66c-.11,0-.22-.08-.24-.19l-.24-1.05c-.03-.13.05-.27.19-.3.13-.03.27.05.3.19l.24,1.05c.03.13-.05.27-.19.3-.02,0-.04,0-.06,0Z"/>
    <path class="cls-2" d="M18.6,8.76s-.05,0-.08-.01c-.13-.04-.2-.18-.16-.31l2.25-6.92c.03-.1.13-.17.24-.17h0c.11,0,.21.07.24.18l2.14,6.92c.04.13-.03.27-.17.31-.13.04-.27-.03-.31-.17l-1.91-6.17-2.01,6.17c-.03.11-.13.17-.24.17Z"/>
    <path class="cls-2" d="M22.27,6.43h-2.91c-.14,0-.25-.11-.25-.25s.11-.25.25-.25h2.91c.14,0,.25.11.25.25s-.11.25-.25.25Z"/>
    <g>
      <path class="cls-2" d="M24.97,8.46c-.06,0-.13-.02-.18-.07-.1-.1-.1-.26,0-.35,0,0,.76-.77.93-1.48.15-.63.16-3.21.15-4.15,0-.07.03-.13.07-.18s.11-.07.18-.07h3.26c.14,0,.25.11.25.25s-.11.25-.25.25h-3.01c0,.82,0,3.33-.17,4.02-.21.85-1.03,1.68-1.06,1.72-.05.05-.11.07-.18.07Z"/>
      <path class="cls-2" d="M26.12,2.65h-1.35c-.14,0-.25-.11-.25-.25s.11-.25.25-.25h1.35c.14,0,.25.11.25.25s-.11.25-.25.25Z"/>
      <path class="cls-2" d="M29.63,5.23h-5.08c-.14,0-.25-.11-.25-.25s.11-.25.25-.25h5.08c.14,0,.25.11.25.25s-.11.25-.25.25Z"/>
      <path class="cls-2" d="M28.22,8.58c-.14,0-.25-.11-.25-.25V2.4c0-.14.11-.25.25-.25s.25.11.25.25v5.93c0,.14-.11.25-.25.25Z"/>
    </g>
  </g>
</svg>