<?xml version="1.0" encoding="UTF-8"?>
<svg id="Layer_2" data-name="Layer 2" xmlns="http://www.w3.org/2000/svg" viewBox="0 0 29.36 29.19">
  <defs>
    <style>
      .cls-1 {
        fill: #ed2c85;
        stroke-width: 0px;
      }
    </style>
  </defs>
  <g id="Layer_1-2" data-name="Layer 1">
    <path class="cls-1" d="M27.12,29.19H2.24c-1.24,0-2.24-1.01-2.24-2.24v-2.47h29.36v2.47c0,1.24-1.01,2.24-2.24,2.24ZM.53,25.01v1.94c0,.95.77,1.72,1.72,1.72h24.88c.95,0,1.72-.77,1.72-1.72v-1.94H.53Z"/>
    <path class="cls-1" d="M16.65,26.71h-3.88c-.46,0-.84-.38-.84-.84v-1.37h.28s5.27-.01,5.27-.01v.28s.01,1.11.01,1.11c0,.46-.38.84-.84.84ZM12.46,25.01v.86c0,.17.14.31.31.31h3.88c.17,0,.31-.14.31-.31v-.86h-4.5Z"/>
    <path class="cls-1" d="M14.32,4.58c-.2.14-.42.29-.67.46l.05.06h.79c.28-.19.55-.37.79-.53h-.96ZM26.1,4.58h-7.16v.53h7.16c.82,0,1.49.67,1.49,1.49v17.89H2V6.25c0-.63.51-1.15,1.15-1.15h7.28v-.53H3.14c-.93,0-1.67.75-1.67,1.67v18.76h26.65V6.6c0-1.11-.91-2.02-2.02-2.02ZM17.4,4.58h-.75c.17.17.35.35.54.53h.81c-.2-.17-.41-.35-.59-.53Z"/>
    <path class="cls-1" d="M9.89,6.45v.53h.53v-.53h-.53ZM20.5,6.45c.17.13.28.32.34.53h5.02v14.68H3.59V6.97h4.98c.03-.2.12-.39.25-.53H3.05v15.74h23.33V6.45h-5.89ZM19.53,6.97v-.53h-.59v.53h.59Z"/>
    <path class="cls-1" d="M9.57,8.14c-.56,0-1.02-.46-1.02-1.02,0-.05,0-.1.01-.15h-.53c0,.06,0,.1,0,.15,0,.85.69,1.54,1.54,1.54h.32v-.53h-.32ZM9.57,8.14c-.56,0-1.02-.46-1.02-1.02,0-.05,0-.1.01-.15h-.53c0,.06,0,.1,0,.15,0,.85.69,1.54,1.54,1.54h.32v-.53h-.32ZM9.57,8.14c-.56,0-1.02-.46-1.02-1.02,0-.05,0-.1.01-.15h-.53c0,.06,0,.1,0,.15,0,.85.69,1.54,1.54,1.54h.32v-.53h-.32ZM9.57,5.58c-.61,0-1.13.35-1.38.86-.08.16-.13.34-.15.53,0,.06,0,.1,0,.15,0,.85.69,1.54,1.54,1.54h.86v-3.08h-.86ZM9.89,8.14h-.32c-.56,0-1.02-.46-1.02-1.02,0-.05,0-.1.01-.15.03-.2.12-.39.25-.53.19-.21.46-.33.75-.33h.32v2.02ZM9.57,8.14c-.56,0-1.02-.46-1.02-1.02,0-.05,0-.1.01-.15h-.53c0,.06,0,.1,0,.15,0,.85.69,1.54,1.54,1.54h.32v-.53h-.32ZM9.57,8.14c-.56,0-1.02-.46-1.02-1.02,0-.05,0-.1.01-.15h-.53c0,.06,0,.1,0,.15,0,.85.69,1.54,1.54,1.54h.32v-.53h-.32Z"/>
    <path class="cls-1" d="M21.38,6.97c-.03-.19-.1-.37-.19-.53-.26-.46-.76-.76-1.33-.76h-.85v3.07h.85c.85,0,1.54-.69,1.54-1.54,0-.08,0-.17-.02-.25ZM19.86,8.23h-.32v-2.02h.32c.25,0,.47.09.64.23.17.13.28.32.34.53.02.08.03.17.03.25,0,.56-.45,1.02-1.01,1.02Z"/>
    <path class="cls-1" d="M18.94,6.2v.77h.06v-.77h-.06ZM18.94,6.2v.77h.06v-.77h-.06ZM19.01,6.97v-.77h-.06v3.05c0,2.26-1.84,4.09-4.1,4.09h-.31c-2.27,0-4.11-1.84-4.11-4.12v-2.25h-.53v2.25c0,1.76.99,3.3,2.43,4.09.17.09.35.17.53.24.53.21,1.09.32,1.69.32h.31c.63,0,1.22-.12,1.76-.35.17-.06.32-.14.48-.23,0,0,0,0,.01,0,1.42-.79,2.37-2.31,2.37-4.03v-2.28h-.46ZM16.91,0h-4.49c-1.4,0-2.53,1.13-2.53,2.52v6.7c0,1.76.99,3.3,2.43,4.09.17.09.35.17.53.24.53.21,1.09.32,1.69.32h.31c.63,0,1.22-.12,1.76-.35.17-.06.32-.14.48-.23,0,0,0,0,.01,0,1.42-.79,2.37-2.31,2.37-4.03V2.56c0-1.41-1.15-2.56-2.56-2.56ZM18.94,9.25c0,2.26-1.84,4.09-4.1,4.09h-.31c-2.27,0-4.11-1.84-4.11-4.12V2.52c0-1.1.89-2,2-2h4.49c1.12,0,2.03.91,2.03,2.03v6.69ZM18.94,6.2v.77h.06v-.77h-.06ZM18.94,6.2v.77h.06v-.77h-.06ZM18.94,6.2v.77h.06v-.77h-.06Z"/>
    <path class="cls-1" d="M5.66,21.92h-.53v-3.3c0-.44.11-.87.31-1.24.26-.45.69-1.05,1.32-1.29.56-.22,1.94-.55,3.16-.85.86-.21,1.75-.43,1.92-.5.2-.09.4-.58.49-.91v-.55h.53v.64c-.05.18-.29,1.06-.8,1.29-.2.09-.86.25-2.01.53-1.14.28-2.57.63-3.1.83-.48.19-.84.68-1.05,1.06-.16.29-.25.62-.25.98v3.3Z"/>
    <path class="cls-1" d="M24.33,21.92h-.53v-3.3c0-.35-.09-.69-.25-.98-.21-.38-.57-.87-1.05-1.06-.53-.2-1.95-.55-3.09-.83-1.15-.28-1.81-.44-2.01-.53-.51-.23-.74-1.12-.79-1.29v-.06s0-.58,0-.58h.53v.55c.09.33.29.82.49.91.16.07,1.05.29,1.92.5,1.22.3,2.6.63,3.16.85.63.24,1.07.83,1.32,1.29.21.37.31.79.31,1.24v3.3Z"/>
    <polygon class="cls-1" points="13.42 17.91 10.36 15.58 10.68 15.16 13.31 17.16 14.21 15.9 12.29 14.53 12.6 14.1 14.95 15.78 13.42 17.91"/>
    <polygon class="cls-1" points="15.95 17.86 14.43 15.73 16.78 14.05 17.09 14.48 15.16 15.85 16.07 17.12 18.7 15.11 19.02 15.53 15.95 17.86"/>
    <rect class="cls-1" x="15.72" y="17.54" width=".53" height="4.12"/>
    <rect class="cls-1" x="13.16" y="17.54" width=".53" height="4.12"/>
    <path class="cls-1" d="M12.62,5.85c-.85.23-2.15.37-2.19.37v-.53s1.25-.13,2.05-.35l.14.51Z"/>
    <path class="cls-1" d="M19.27,5.69v.53h-.26s-.06,0-.06,0h-.17c-.52-.2-1.08-.64-1.58-1.1-.19-.18-.37-.35-.54-.53-.13-.13-.26-.26-.35-.37-.07-.07-.13-.13-.18-.18-.17.1-.48.3-.84.55-.24.16-.51.34-.79.53-.18.12-.36.25-.54.37l-.26-.37-.05-.06c.25-.17.47-.32.67-.46,1.67-1.13,1.75-1.13,1.84-1.13.14,0,.18.05.53.41.19.19.44.45.73.73.19.18.39.36.59.53.31.25.63.47.91.58h.36Z"/>
    <rect class="cls-1" x="12.18" y="7.07" width=".53" height="1.51"/>
    <rect class="cls-1" x="16.66" y="7.11" width=".53" height="1.51"/>
    <path class="cls-1" d="M14.62,11.84s-.03,0-.05,0c-.6-.02-1.21-.29-1.24-.31l.22-.48s.55.24,1.04.26c.41.01,1.03-.25,1.24-.35l.23.47s-.84.4-1.44.4Z"/>
  </g>
</svg>