<svg width="48" height="48" viewBox="0 0 48 48" fill="none" xmlns="http://www.w3.org/2000/svg">
<rect width="48" height="48" rx="2" fill="#F8F8F8"/>
<path fill-rule="evenodd" clip-rule="evenodd" d="M25.87 8.567L28.507 4L35.983 8.317L33.347 12.883C32.884 13.684 33.577 14.658 34.485 14.483L39.537 13.508L41.172 21.985L36.12 22.959C27.948 24.535 21.709 15.775 25.87 8.567Z" fill="#7319B8"/>
<path fill-rule="evenodd" clip-rule="evenodd" d="M21.302 39.433L18.665 44L11.188 39.684L13.825 35.117C14.288 34.316 13.595 33.342 12.686 33.517L7.635 34.491L6 26.015L11.052 25.041C19.224 23.465 25.462 32.225 21.302 39.433Z" fill="#7319B8"/>
<path fill-rule="evenodd" clip-rule="evenodd" d="M21.53 8.567L18.894 4L11.417 8.317L14.054 12.883C14.516 13.684 13.824 14.658 12.915 14.483L7.86301 13.508L6.23001 21.985L11.281 22.959C19.454 24.535 25.693 15.775 21.531 8.567H21.53Z" fill="#7319B8"/>
<path fill-rule="evenodd" clip-rule="evenodd" d="M25.65 39.433L28.285 44L35.762 39.684L33.125 35.117C32.663 34.316 33.355 33.342 34.264 33.517L39.315 34.491L40.95 26.015L35.898 25.041C27.726 23.465 21.488 32.225 25.648 39.433H25.65Z" fill="#7319B8"/>
</svg>
