<svg width="36" height="40" viewBox="0 0 36 40" fill="none" xmlns="http://www.w3.org/2000/svg">
<path fill-rule="evenodd" clip-rule="evenodd" d="M19.87 4.567L22.507 0L29.983 4.317L27.347 8.883C26.884 9.684 27.577 10.658 28.485 10.483L33.537 9.508L35.172 17.985L30.12 18.959C21.948 20.535 15.709 11.775 19.87 4.567Z" fill="#7319B8"/>
<path fill-rule="evenodd" clip-rule="evenodd" d="M15.302 35.433L12.665 40L5.188 35.684L7.825 31.117C8.288 30.316 7.595 29.342 6.686 29.517L1.635 30.491L0 22.015L5.052 21.041C13.224 19.465 19.462 28.225 15.302 35.433Z" fill="#7319B8"/>
<path fill-rule="evenodd" clip-rule="evenodd" d="M15.53 4.567L12.894 0L5.41701 4.317L8.05401 8.883C8.51601 9.684 7.82401 10.658 6.91501 10.483L1.86301 9.508L0.230011 17.985L5.28101 18.959C13.454 20.535 19.693 11.775 15.531 4.567H15.53Z" fill="#7319B8"/>
<path fill-rule="evenodd" clip-rule="evenodd" d="M19.65 35.433L22.285 40L29.762 35.684L27.125 31.117C26.663 30.316 27.355 29.342 28.264 29.517L33.315 30.491L34.95 22.015L29.898 21.041C21.726 19.465 15.488 28.225 19.648 35.433H19.65Z" fill="#7319B8"/>
</svg>
